<svg width="50" height="40" viewBox="0 0 215 37" fill="none" xmlns="http://www.w3.org/2000/svg">
<path d="M14.584 19.48C15.8853 19.7573 16.9307 20.408 17.72 21.432C18.5093 22.4347 18.904 23.5867 18.904 24.888C18.904 26.7653 18.2427 28.2587 16.92 29.368C15.6187 30.456 13.7947 31 11.448 31H0.984V8.536H11.096C13.3787 8.536 15.16 9.05867 16.44 10.104C17.7413 11.1493 18.392 12.568 18.392 14.36C18.392 15.6827 18.04 16.7813 17.336 17.656C16.6533 18.5307 15.736 19.1387 14.584 19.48ZM6.456 17.624H10.04C10.936 17.624 11.6187 17.432 12.088 17.048C12.5787 16.6427 12.824 16.056 12.824 15.288C12.824 14.52 12.5787 13.9333 12.088 13.528C11.6187 13.1227 10.936 12.92 10.04 12.92H6.456V17.624ZM10.488 26.584C11.4053 26.584 12.1093 26.3813 12.6 25.976C13.112 25.5493 13.368 24.9413 13.368 24.152C13.368 23.3627 13.1013 22.744 12.568 22.296C12.056 21.848 11.3413 21.624 10.424 21.624H6.456V26.584H10.488ZM20.9898 22.04C20.9898 20.2053 21.3311 18.5947 22.0138 17.208C22.7178 15.8213 23.6671 14.7547 24.8618 14.008C26.0564 13.2613 27.3898 12.888 28.8618 12.888C30.1204 12.888 31.2191 13.144 32.1578 13.656C33.1178 14.168 33.8538 14.84 34.3658 15.672V13.144H39.8378V31H34.3658V28.472C33.8324 29.304 33.0858 29.976 32.1258 30.488C31.1871 31 30.0884 31.256 28.8298 31.256C27.3791 31.256 26.0564 30.8827 24.8618 30.136C23.6671 29.368 22.7178 28.2907 22.0138 26.904C21.3311 25.496 20.9898 23.8747 20.9898 22.04ZM34.3658 22.072C34.3658 20.7067 33.9818 19.6293 33.2138 18.84C32.4671 18.0507 31.5498 17.656 30.4618 17.656C29.3738 17.656 28.4458 18.0507 27.6778 18.84C26.9311 19.608 26.5578 20.6747 26.5578 22.04C26.5578 23.4053 26.9311 24.4933 27.6778 25.304C28.4458 26.0933 29.3738 26.488 30.4618 26.488C31.5498 26.488 32.4671 26.0933 33.2138 25.304C33.9818 24.5147 34.3658 23.4373 34.3658 22.072ZM42.7085 22.072C42.7085 20.216 43.0818 18.5947 43.8285 17.208C44.5965 15.8213 45.6525 14.7547 46.9965 14.008C48.3618 13.2613 49.9192 12.888 51.6685 12.888C53.9085 12.888 55.7752 13.4747 57.2685 14.648C58.7832 15.8213 59.7752 17.4747 60.2445 19.608H54.4205C53.9298 18.2427 52.9805 17.56 51.5725 17.56C50.5698 17.56 49.7698 17.9547 49.1725 18.744C48.5752 19.512 48.2765 20.6213 48.2765 22.072C48.2765 23.5227 48.5752 24.6427 49.1725 25.432C49.7698 26.2 50.5698 26.584 51.5725 26.584C52.9805 26.584 53.9298 25.9013 54.4205 24.536H60.2445C59.7752 26.6267 58.7832 28.2693 57.2685 29.464C55.7538 30.6587 53.8872 31.256 51.6685 31.256C49.9192 31.256 48.3618 30.8827 46.9965 30.136C45.6525 29.3893 44.5965 28.3227 43.8285 26.936C43.0818 25.5493 42.7085 23.928 42.7085 22.072ZM74.0835 31L68.6435 23.512V31H63.1715V7.32H68.6435V20.408L74.0515 13.144H80.8035L73.3795 22.104L80.8675 31H74.0835ZM96.7128 17.496V22.04H82.6328V17.496H96.7128ZM106.987 12.92V17.464H114.315V21.688H106.987V26.616H115.275V31H101.515V8.536H115.275V12.92H106.987ZM129.708 12.952C131.798 12.952 133.462 13.6347 134.7 15C135.958 16.344 136.588 18.2 136.588 20.568V31H131.148V21.304C131.148 20.1093 130.838 19.1813 130.22 18.52C129.601 17.8587 128.769 17.528 127.724 17.528C126.678 17.528 125.846 17.8587 125.228 18.52C124.609 19.1813 124.3 20.1093 124.3 21.304V31H118.828V13.144H124.3V15.512C124.854 14.7227 125.601 14.104 126.54 13.656C127.478 13.1867 128.534 12.952 129.708 12.952ZM139.302 22.04C139.302 20.2053 139.644 18.5947 140.326 17.208C141.03 15.8213 141.98 14.7547 143.174 14.008C144.369 13.2613 145.702 12.888 147.174 12.888C148.348 12.888 149.414 13.1333 150.374 13.624C151.356 14.1147 152.124 14.776 152.678 15.608V7.32H158.15V31H152.678V28.44C152.166 29.2933 151.43 29.976 150.47 30.488C149.532 31 148.433 31.256 147.174 31.256C145.702 31.256 144.369 30.8827 143.174 30.136C141.98 29.368 141.03 28.2907 140.326 26.904C139.644 25.496 139.302 23.8747 139.302 22.04ZM152.678 22.072C152.678 20.7067 152.294 19.6293 151.526 18.84C150.78 18.0507 149.862 17.656 148.774 17.656C147.686 17.656 146.758 18.0507 145.99 18.84C145.244 19.608 144.87 20.6747 144.87 22.04C144.87 23.4053 145.244 24.4933 145.99 25.304C146.758 26.0933 147.686 26.488 148.774 26.488C149.862 26.488 150.78 26.0933 151.526 25.304C152.294 24.5147 152.678 23.4373 152.678 22.072Z" fill="white"/>
<path d="M175.226 26.872L168.73 19.8L175.226 12.728H182.106L175.578 19.8L182.106 26.872H175.226ZM198.707 0.599998L190.131 36.984H184.851L193.427 0.599998H198.707ZM201.047 12.728H207.927L214.423 19.8L207.927 26.872H201.047L207.575 19.8L201.047 12.728Z" fill="#FF5C00"/>
</svg>
