<svg width="50" height="40" viewBox="0 0 219 37" fill="none" xmlns="http://www.w3.org/2000/svg">
<path d="M15.608 8.536V12.92H6.456V17.656H13.304V21.912H6.456V31H0.984V8.536H15.608ZM23.956 16.12C24.596 15.1387 25.396 14.3707 26.356 13.816C27.316 13.24 28.3827 12.952 29.556 12.952V18.744H28.052C26.6867 18.744 25.6627 19.0427 24.98 19.64C24.2973 20.216 23.956 21.24 23.956 22.712V31H18.484V13.144H23.956V16.12ZM40.2995 31.256C38.5502 31.256 36.9715 30.8827 35.5635 30.136C34.1768 29.3893 33.0782 28.3227 32.2675 26.936C31.4782 25.5493 31.0835 23.928 31.0835 22.072C31.0835 20.2373 31.4888 18.6267 32.2995 17.24C33.1102 15.832 34.2195 14.7547 35.6275 14.008C37.0355 13.2613 38.6142 12.888 40.3635 12.888C42.1128 12.888 43.6915 13.2613 45.0995 14.008C46.5075 14.7547 47.6168 15.832 48.4275 17.24C49.2382 18.6267 49.6435 20.2373 49.6435 22.072C49.6435 23.9067 49.2275 25.528 48.3955 26.936C47.5848 28.3227 46.4648 29.3893 45.0355 30.136C43.6275 30.8827 42.0488 31.256 40.2995 31.256ZM40.2995 26.52C41.3448 26.52 42.2302 26.136 42.9555 25.368C43.7022 24.6 44.0755 23.5013 44.0755 22.072C44.0755 20.6427 43.7128 19.544 42.9875 18.776C42.2835 18.008 41.4088 17.624 40.3635 17.624C39.2968 17.624 38.4115 18.008 37.7075 18.776C37.0035 19.5227 36.6515 20.6213 36.6515 22.072C36.6515 23.5013 36.9928 24.6 37.6755 25.368C38.3795 26.136 39.2542 26.52 40.2995 26.52ZM63.4265 12.952C65.5172 12.952 67.1812 13.6347 68.4185 15C69.6772 16.344 70.3065 18.2 70.3065 20.568V31H64.8665V21.304C64.8665 20.1093 64.5572 19.1813 63.9385 18.52C63.3198 17.8587 62.4878 17.528 61.4425 17.528C60.3972 17.528 59.5652 17.8587 58.9465 18.52C58.3278 19.1813 58.0185 20.1093 58.0185 21.304V31H52.5465V13.144H58.0185V15.512C58.5732 14.7227 59.3198 14.104 60.2585 13.656C61.1972 13.1867 62.2532 12.952 63.4265 12.952ZM84.061 26.36V31H81.277C79.293 31 77.7463 30.52 76.637 29.56C75.5277 28.5787 74.973 26.9893 74.973 24.792V17.688H72.797V13.144H74.973V8.792H80.445V13.144H84.029V17.688H80.445V24.856C80.445 25.3893 80.573 25.7733 80.829 26.008C81.085 26.2427 81.5117 26.36 82.109 26.36H84.061ZM100.869 17.496V22.04H86.789V17.496H100.869ZM111.144 12.92V17.464H118.472V21.688H111.144V26.616H119.432V31H105.672V8.536H119.432V12.92H111.144ZM133.864 12.952C135.955 12.952 137.619 13.6347 138.856 15C140.115 16.344 140.744 18.2 140.744 20.568V31H135.304V21.304C135.304 20.1093 134.995 19.1813 134.376 18.52C133.757 17.8587 132.925 17.528 131.88 17.528C130.835 17.528 130.003 17.8587 129.384 18.52C128.765 19.1813 128.456 20.1093 128.456 21.304V31H122.984V13.144H128.456V15.512C129.011 14.7227 129.757 14.104 130.696 13.656C131.635 13.1867 132.691 12.952 133.864 12.952ZM143.459 22.04C143.459 20.2053 143.8 18.5947 144.483 17.208C145.187 15.8213 146.136 14.7547 147.331 14.008C148.525 13.2613 149.859 12.888 151.331 12.888C152.504 12.888 153.571 13.1333 154.531 13.624C155.512 14.1147 156.28 14.776 156.835 15.608V7.32H162.307V31H156.835V28.44C156.323 29.2933 155.587 29.976 154.627 30.488C153.688 31 152.589 31.256 151.331 31.256C149.859 31.256 148.525 30.8827 147.331 30.136C146.136 29.368 145.187 28.2907 144.483 26.904C143.8 25.496 143.459 23.8747 143.459 22.04ZM156.835 22.072C156.835 20.7067 156.451 19.6293 155.683 18.84C154.936 18.0507 154.019 17.656 152.931 17.656C151.843 17.656 150.915 18.0507 150.147 18.84C149.4 19.608 149.027 20.6747 149.027 22.04C149.027 23.4053 149.4 24.4933 150.147 25.304C150.915 26.0933 151.843 26.488 152.931 26.488C154.019 26.488 154.936 26.0933 155.683 25.304C156.451 24.5147 156.835 23.4373 156.835 22.072Z" fill="white"/>
<path d="M179.383 26.872L172.887 19.8L179.383 12.728H186.263L179.735 19.8L186.263 26.872H179.383ZM202.864 0.599998L194.288 36.984H189.008L197.584 0.599998H202.864ZM205.204 12.728H212.084L218.58 19.8L212.084 26.872H205.204L211.732 19.8L205.204 12.728Z" fill="#006C1F"/>
</svg>
