<svg width="23" height="23" viewBox="0 0 23 23" fill="none" xmlns="http://www.w3.org/2000/svg">
    <path d="M16.5 1.75H6.5C3.73858 1.75 1.5 3.98858 1.5 6.75V16.75C1.5 19.5114 3.73858 21.75 6.5 21.75H16.5C19.2614 21.75 21.5 19.5114 21.5 16.75V6.75C21.5 3.98858 19.2614 1.75 16.5 1.75Z" stroke="#fff" stroke-width="2" stroke-linecap="round" stroke-linejoin="round" />
    <path d="M15.5 11.12C15.6234 11.9522 15.4813 12.8022 15.0938 13.549C14.7063 14.2958 14.0932 14.9014 13.3416 15.2797C12.5901 15.6579 11.7385 15.7896 10.9078 15.6559C10.0771 15.5223 9.30977 15.1301 8.71485 14.5352C8.11993 13.9402 7.72774 13.1729 7.59408 12.3422C7.46042 11.5115 7.59208 10.6599 7.97034 9.90837C8.3486 9.15685 8.9542 8.54374 9.701 8.15624C10.4478 7.76874 11.2978 7.62658 12.13 7.75C12.9789 7.87588 13.7649 8.27146 14.3717 8.8783C14.9785 9.48515 15.3741 10.2711 15.5 11.12Z" stroke="#fff" stroke-width="2" stroke-linecap="round" stroke-linejoin="round" />
    <path d="M17 6.25H17.01" stroke="#FFF" stroke-width="2" stroke-linecap="round" stroke-linejoin="round" />
</svg>