<svg width="12" height="15" viewBox="0 0 12 15" fill="none" xmlns="http://www.w3.org/2000/svg">
    <path d="M10.9997 10.733V12.69C11.0003 12.8717 10.9716 13.0515 10.9155 13.218C10.8594 13.3845 10.7771 13.5339 10.6739 13.6567C10.5707 13.7795 10.4489 13.873 10.3163 13.9312C10.1836 13.9894 10.0431 14.0111 9.90359 13.9947C8.3564 13.7766 6.87022 13.0907 5.56445 11.992C4.34961 10.9905 3.31963 9.65414 2.54767 8.07797C1.69793 6.37614 1.16912 4.43855 1.00408 2.42217C0.991516 2.24177 1.00804 2.05996 1.0526 1.88831C1.09716 1.71665 1.16878 1.55892 1.2629 1.42514C1.35703 1.29137 1.47158 1.18449 1.59929 1.1113C1.72699 1.03812 1.86504 1.00023 2.00465 1.00006H3.51304C3.75705 0.996947 3.99361 1.10906 4.17862 1.31549C4.36364 1.52193 4.48448 1.80861 4.51863 2.12209C4.5823 2.74838 4.70037 3.36332 4.87059 3.95517C4.93824 4.18866 4.95288 4.44241 4.91278 4.68637C4.87268 4.93032 4.77952 5.15425 4.64433 5.33161L4.00578 6.16008C4.72154 7.79325 5.76379 9.14549 7.02256 10.0741L7.66112 9.24566C7.79782 9.07027 7.97041 8.9494 8.15844 8.89737C8.34647 8.84534 8.54206 8.86434 8.72202 8.95211C9.17819 9.17296 9.65216 9.32614 10.1349 9.40874C10.3791 9.45345 10.6022 9.61306 10.7616 9.85723C10.9211 10.1014 11.0058 10.4131 10.9997 10.733Z" stroke="#006C1F" stroke-width="2" stroke-linecap="round" stroke-linejoin="round" />
</svg>