<svg width="50" height="40" viewBox="0 0 250 40" fill="none" xmlns="http://www.w3.org/2000/svg">
<path d="M32.896 8.536L27.04 31H20.416L16.832 16.216L13.12 31H6.496L0.8 8.536H6.656L9.888 24.888L13.888 8.536H19.904L23.744 24.888L27.008 8.536H32.896ZM52.4722 21.784C52.4722 22.296 52.4403 22.8293 52.3763 23.384H39.9923C40.0776 24.4933 40.4296 25.3467 41.0483 25.944C41.6883 26.52 42.4669 26.808 43.3843 26.808C44.7496 26.808 45.6989 26.232 46.2323 25.08H52.0563C51.7576 26.2533 51.2136 27.3093 50.4243 28.248C49.6563 29.1867 48.6856 29.9227 47.5123 30.456C46.3389 30.9893 45.0269 31.256 43.5763 31.256C41.8269 31.256 40.2696 30.8827 38.9043 30.136C37.5389 29.3893 36.4723 28.3227 35.7043 26.936C34.9363 25.5493 34.5523 23.928 34.5523 22.072C34.5523 20.216 34.9256 18.5947 35.6723 17.208C36.4403 15.8213 37.5069 14.7547 38.8723 14.008C40.2376 13.2613 41.8056 12.888 43.5763 12.888C45.3043 12.888 46.8403 13.2507 48.1843 13.976C49.5283 14.7013 50.5736 15.736 51.3203 17.08C52.0883 18.424 52.4722 19.992 52.4722 21.784ZM46.8723 20.344C46.8723 19.4053 46.5523 18.6587 45.9123 18.104C45.2723 17.5493 44.4723 17.272 43.5123 17.272C42.5949 17.272 41.8163 17.5387 41.1763 18.072C40.5576 18.6053 40.1736 19.3627 40.0243 20.344H46.8723ZM60.831 15.672C61.343 14.84 62.079 14.168 63.039 13.656C63.999 13.144 65.0977 12.888 66.335 12.888C67.807 12.888 69.1403 13.2613 70.335 14.008C71.5297 14.7547 72.4683 15.8213 73.151 17.208C73.855 18.5947 74.207 20.2053 74.207 22.04C74.207 23.8747 73.855 25.496 73.151 26.904C72.4683 28.2907 71.5297 29.368 70.335 30.136C69.1403 30.8827 67.807 31.256 66.335 31.256C65.0763 31.256 63.9777 31.0107 63.039 30.52C62.1003 30.008 61.3643 29.336 60.831 28.504V31H55.359V7.32H60.831V15.672ZM68.639 22.04C68.639 20.6747 68.255 19.608 67.487 18.84C66.7403 18.0507 65.8123 17.656 64.703 17.656C63.615 17.656 62.687 18.0507 61.919 18.84C61.1723 19.6293 60.799 20.7067 60.799 22.072C60.799 23.4373 61.1723 24.5147 61.919 25.304C62.687 26.0933 63.615 26.488 64.703 26.488C65.791 26.488 66.719 26.0933 67.487 25.304C68.255 24.4933 68.639 23.4053 68.639 22.04ZM92.275 8.536C94.643 8.536 96.7123 9.00533 98.483 9.944C100.254 10.8827 101.619 12.2053 102.579 13.912C103.56 15.5973 104.051 17.5493 104.051 19.768C104.051 21.9653 103.56 23.9173 102.579 25.624C101.619 27.3307 100.243 28.6533 98.451 29.592C96.6803 30.5307 94.6217 31 92.275 31H83.859V8.536H92.275ZM91.923 26.264C93.9923 26.264 95.603 25.6987 96.755 24.568C97.907 23.4373 98.483 21.8373 98.483 19.768C98.483 17.6987 97.907 16.088 96.755 14.936C95.603 13.784 93.9923 13.208 91.923 13.208H89.331V26.264H91.923ZM123.941 21.784C123.941 22.296 123.909 22.8293 123.845 23.384H111.461C111.546 24.4933 111.898 25.3467 112.517 25.944C113.157 26.52 113.936 26.808 114.853 26.808C116.218 26.808 117.168 26.232 117.701 25.08H123.525C123.226 26.2533 122.682 27.3093 121.893 28.248C121.125 29.1867 120.154 29.9227 118.981 30.456C117.808 30.9893 116.496 31.256 115.045 31.256C113.296 31.256 111.738 30.8827 110.373 30.136C109.008 29.3893 107.941 28.3227 107.173 26.936C106.405 25.5493 106.021 23.928 106.021 22.072C106.021 20.216 106.394 18.5947 107.141 17.208C107.909 15.8213 108.976 14.7547 110.341 14.008C111.706 13.2613 113.274 12.888 115.045 12.888C116.773 12.888 118.309 13.2507 119.653 13.976C120.997 14.7013 122.042 15.736 122.789 17.08C123.557 18.424 123.941 19.992 123.941 21.784ZM118.341 20.344C118.341 19.4053 118.021 18.6587 117.381 18.104C116.741 17.5493 115.941 17.272 114.981 17.272C114.064 17.272 113.285 17.5387 112.645 18.072C112.026 18.6053 111.642 19.3627 111.493 20.344H118.341ZM134.092 31.256C132.534 31.256 131.148 30.9893 129.932 30.456C128.716 29.9227 127.756 29.1973 127.052 28.28C126.348 27.3413 125.953 26.296 125.868 25.144H131.276C131.34 25.7627 131.628 26.264 132.14 26.648C132.652 27.032 133.281 27.224 134.028 27.224C134.71 27.224 135.233 27.096 135.596 26.84C135.98 26.5627 136.172 26.2107 136.172 25.784C136.172 25.272 135.905 24.8987 135.372 24.664C134.838 24.408 133.974 24.1307 132.78 23.832C131.5 23.5333 130.433 23.224 129.58 22.904C128.726 22.5627 127.99 22.04 127.372 21.336C126.753 20.6107 126.444 19.64 126.444 18.424C126.444 17.4 126.721 16.472 127.276 15.64C127.852 14.7867 128.684 14.1147 129.772 13.624C130.881 13.1333 132.193 12.888 133.708 12.888C135.948 12.888 137.708 13.4427 138.988 14.552C140.289 15.6613 141.036 17.1333 141.228 18.968H136.172C136.086 18.3493 135.809 17.8587 135.34 17.496C134.892 17.1333 134.294 16.952 133.548 16.952C132.908 16.952 132.417 17.08 132.076 17.336C131.734 17.5707 131.564 17.9013 131.564 18.328C131.564 18.84 131.83 19.224 132.364 19.48C132.918 19.736 133.772 19.992 134.924 20.248C136.246 20.5893 137.324 20.9307 138.156 21.272C138.988 21.592 139.713 22.1253 140.332 22.872C140.972 23.5973 141.302 24.5787 141.324 25.816C141.324 26.8613 141.025 27.8 140.428 28.632C139.852 29.4427 139.009 30.0827 137.9 30.552C136.812 31.0213 135.542 31.256 134.092 31.256ZM147.424 11.288C146.464 11.288 145.674 11.0107 145.056 10.456C144.458 9.88 144.16 9.176 144.16 8.344C144.16 7.49067 144.458 6.78667 145.056 6.232C145.674 5.656 146.464 5.368 147.424 5.368C148.362 5.368 149.13 5.656 149.728 6.232C150.346 6.78667 150.656 7.49067 150.656 8.344C150.656 9.176 150.346 9.88 149.728 10.456C149.13 11.0107 148.362 11.288 147.424 11.288ZM150.144 13.144V31H144.672V13.144H150.144ZM160.893 12.888C162.152 12.888 163.25 13.144 164.189 13.656C165.149 14.168 165.885 14.84 166.397 15.672V13.144H171.869V30.968C171.869 32.6107 171.538 34.0933 170.877 35.416C170.237 36.76 169.245 37.8267 167.901 38.616C166.578 39.4053 164.925 39.8 162.941 39.8C160.296 39.8 158.152 39.1707 156.509 37.912C154.866 36.6747 153.928 34.9893 153.693 32.856H159.101C159.272 33.5387 159.677 34.072 160.317 34.456C160.957 34.8613 161.746 35.064 162.685 35.064C163.816 35.064 164.712 34.7333 165.373 34.072C166.056 33.432 166.397 32.3973 166.397 30.968V28.44C165.864 29.272 165.128 29.9547 164.189 30.488C163.25 31 162.152 31.256 160.893 31.256C159.421 31.256 158.088 30.8827 156.893 30.136C155.698 29.368 154.749 28.2907 154.045 26.904C153.362 25.496 153.021 23.8747 153.021 22.04C153.021 20.2053 153.362 18.5947 154.045 17.208C154.749 15.8213 155.698 14.7547 156.893 14.008C158.088 13.2613 159.421 12.888 160.893 12.888ZM166.397 22.072C166.397 20.7067 166.013 19.6293 165.245 18.84C164.498 18.0507 163.581 17.656 162.493 17.656C161.405 17.656 160.477 18.0507 159.709 18.84C158.962 19.608 158.589 20.6747 158.589 22.04C158.589 23.4053 158.962 24.4933 159.709 25.304C160.477 26.0933 161.405 26.488 162.493 26.488C163.581 26.488 164.498 26.0933 165.245 25.304C166.013 24.5147 166.397 23.4373 166.397 22.072ZM186.708 12.952C188.798 12.952 190.462 13.6347 191.7 15C192.958 16.344 193.588 18.2 193.588 20.568V31H188.148V21.304C188.148 20.1093 187.838 19.1813 187.22 18.52C186.601 17.8587 185.769 17.528 184.724 17.528C183.678 17.528 182.846 17.8587 182.228 18.52C181.609 19.1813 181.3 20.1093 181.3 21.304V31H175.828V13.144H181.3V15.512C181.854 14.7227 182.601 14.104 183.54 13.656C184.478 13.1867 185.534 12.952 186.708 12.952Z" fill="white"/>
<path d="M210.508 26.872L204.012 19.8L210.508 12.728H217.388L210.86 19.8L217.388 26.872H210.508ZM233.989 0.599998L225.413 36.984H220.133L228.709 0.599998H233.989ZM236.329 12.728H243.209L249.705 19.8L243.209 26.872H236.329L242.857 19.8L236.329 12.728Z" fill="#00A6CA"/>
</svg>

